<svg version="1" xmlns="http://www.w3.org/2000/svg" width="106.667" height="106.667" viewBox="0 0 80.000000 80.000000"><path d="M0 40v40h80V0H0v40zM31.6 9.4c.3 1.3 1.5 2.6 2.6 2.9 1.1.3 1.7 1 1.3 1.6-.3.6-1.1.9-1.6.6-.5-.4-.9.2-.9 1.2 0 4.6-6.3 6-8.1 1.9-.6-1.3-2-2.7-3-2.9-1.1-.3-1.9-1-1.9-1.7s.8-.9 1.9-.5c1.4.4 2.1 0 2.7-1.7 1.3-4.4 6-5.3 7-1.4zM48.8 16c2.4 0 5.2-.5 6.4-1.1 2.3-1.3 2.7-1 3 2.2.2 1.8-.2 2.4-1.7 2.5-1.1 0-3.4.4-5.1.8l-3.1.7 2.3 4.7C57.9 41 64.8 57 64.1 57c-1.4 0-2.5-2-8.6-15.5-3.2-7.2-6-13.2-6.3-13.5-.2-.3-.1 5.7.3 13.2.4 9.7.3 13.8-.4 13.8-.6 0-1.1-2.1-1.2-4.8 0-2.6-.2-5.8-.3-7.2-.1-1.4-.3-5.4-.5-9-.2-6.6-.3-6.6-3 .3-.6 1.6-1.5 2.6-2 2.2-.6-.3.3-3.7 2-7.7 1.6-3.9 2.9-7.2 2.9-7.4 0-.1-1.2.4-2.7 1.1-2.8 1.5-2.8 1.4-3.6-2.1-.8-4.1.8-7.3 2.7-5.4.5.5 3 1 5.4 1zm-21.9 5c1 .5 2.8 3.2 4 5.9 1.6 3.8 3.4 5.9 7.1 8.4 4.4 3 4.8 3.6 3.5 4.7-1.2 1-2.4.9-6.3-.5-2.6-1-5.2-2.5-5.8-3.3-.9-1.3-1.3-1-2.2 1.5-.9 2.7-.6 3.8 2 8.4 1.7 2.9 3.8 8 4.8 11.4 1.7 6.1 1.7 6.1-.5 8.9l-2.2 2.8-2.8-7.6C27 57.5 25 53.4 24 52.5c-1.6-1.5-2-.9-5.7 9.5l-3.9 11.1-2.3-1.8-2.2-1.8L13 57.1c1.7-7 2.9-13.5 2.5-15-.3-1.4-.1-4.8.4-7.4.6-3.5.5-4.7-.3-4.4-.6.2-1.5 3.1-1.9 6.5-.7 4.8-1.3 6.2-2.5 6.2-1.4 0-1.8-1.3-2-7.4l-.3-7.3 7.8-4.1c9-4.8 8-4.5 10.2-3.2zM41 42.2c0 .2-1.3 3.7-2.9 7.8-1.9 4.8-3.2 6.9-3.6 5.9-.3-.8.2-3.3 1.1-5.5.9-2.1 2-4.9 2.5-6.2.5-1.2 1.3-2.2 1.9-2.2.5 0 1 .1 1 .2zm20.5 14.5c2.2 1.5 4.6 3.4 5.3 4.2 2.3 2.8 7.2 10.5 7.2 11.3 0 .4-9.7.8-21.5.8-15 0-21.5-.3-21.5-1.1 0-.6 3.2-4.4 7.2-8.5 5.1-5.3 7.9-7.4 9.7-7.5 1.4 0 3.5-.4 4.6-.9 3.3-1.4 4.8-1.1 9 1.7z"/></svg>